<?xml version="1.0" encoding="UTF-8" standalone="no"?>
<!-- Created with Inkscape (http://www.inkscape.org/) -->

<svg
   xmlns:dc="http://purl.org/dc/elements/1.1/"
   xmlns:cc="http://creativecommons.org/ns#"
   xmlns:rdf="http://www.w3.org/1999/02/22-rdf-syntax-ns#"
   xmlns:svg="http://www.w3.org/2000/svg"
   xmlns="http://www.w3.org/2000/svg"
   xmlns:sodipodi="http://sodipodi.sourceforge.net/DTD/sodipodi-0.dtd"
   xmlns:inkscape="http://www.inkscape.org/namespaces/inkscape"
   width="210mm"
   height="180mm"
   viewBox="0 0 210 180"
   version="1.1"
   id="svg8"
   inkscape:version="0.92.5 (2060ec1f9f, 2020-04-08)"
   sodipodi:docname="balancing-schema.svg">
  <defs
     id="defs2">
    <marker
       inkscape:stockid="Arrow1Lstart"
       orient="auto"
       refY="0"
       refX="0"
       id="Arrow1Lstart"
       style="overflow:visible"
       inkscape:isstock="true">
      <path
         id="path953"
         d="M 0,0 5,-5 -12.5,0 5,5 Z"
         style="fill:#000000;fill-opacity:1;fill-rule:evenodd;stroke:#000000;stroke-width:1.00000003pt;stroke-opacity:1"
         transform="matrix(0.8,0,0,0.8,10,0)"
         inkscape:connector-curvature="0" />
    </marker>
    <marker
       inkscape:stockid="Arrow1Lstart"
       orient="auto"
       refY="0"
       refX="0"
       id="Arrow1Lstart-3"
       style="overflow:visible"
       inkscape:isstock="true">
      <path
         inkscape:connector-curvature="0"
         id="path953-6"
         d="M 0,0 5,-5 -12.5,0 5,5 Z"
         style="fill:#000000;fill-opacity:1;fill-rule:evenodd;stroke:#000000;stroke-width:1.00000003pt;stroke-opacity:1"
         transform="matrix(0.8,0,0,0.8,10,0)" />
    </marker>
    <marker
       inkscape:stockid="Arrow1Lstart"
       orient="auto"
       refY="0"
       refX="0"
       id="Arrow1Lstart-1"
       style="overflow:visible"
       inkscape:isstock="true">
      <path
         inkscape:connector-curvature="0"
         id="path953-8"
         d="M 0,0 5,-5 -12.5,0 5,5 Z"
         style="fill:#000000;fill-opacity:1;fill-rule:evenodd;stroke:#000000;stroke-width:1.00000003pt;stroke-opacity:1"
         transform="matrix(0.8,0,0,0.8,10,0)" />
    </marker>
    <marker
       inkscape:stockid="Arrow1Lstart"
       orient="auto"
       refY="0"
       refX="0"
       id="Arrow1Lstart-37"
       style="overflow:visible"
       inkscape:isstock="true">
      <path
         inkscape:connector-curvature="0"
         id="path953-5"
         d="M 0,0 5,-5 -12.5,0 5,5 Z"
         style="fill:#000000;fill-opacity:1;fill-rule:evenodd;stroke:#000000;stroke-width:1.00000003pt;stroke-opacity:1"
         transform="matrix(0.8,0,0,0.8,10,0)" />
    </marker>
  </defs>
  <sodipodi:namedview
     id="base"
     pagecolor="#ffffff"
     bordercolor="#666666"
     borderopacity="1.0"
     inkscape:pageopacity="0.0"
     inkscape:pageshadow="2"
     inkscape:zoom="0.7"
     inkscape:cx="-98.580555"
     inkscape:cy="513.6195"
     inkscape:document-units="mm"
     inkscape:current-layer="layer1"
     showgrid="false"
     inkscape:snap-global="false"
     inkscape:window-width="1920"
     inkscape:window-height="993"
     inkscape:window-x="0"
     inkscape:window-y="0"
     inkscape:window-maximized="1" />
  <metadata
     id="metadata5">
    <rdf:RDF>
      <cc:Work
         rdf:about="">
        <dc:format>image/svg+xml</dc:format>
        <dc:type
           rdf:resource="http://purl.org/dc/dcmitype/StillImage" />
        <dc:title></dc:title>
      </cc:Work>
    </rdf:RDF>
  </metadata>
  <g
     inkscape:label="Layer 1"
     inkscape:groupmode="layer"
     id="layer1"
     transform="translate(0,-117)">
    <path
       style="color:#000000;font-style:normal;font-variant:normal;font-weight:normal;font-stretch:normal;font-size:medium;line-height:normal;font-family:sans-serif;font-variant-ligatures:normal;font-variant-position:normal;font-variant-caps:normal;font-variant-numeric:normal;font-variant-alternates:normal;font-feature-settings:normal;text-indent:0;text-align:start;text-decoration:none;text-decoration-line:none;text-decoration-style:solid;text-decoration-color:#000000;letter-spacing:normal;word-spacing:normal;text-transform:none;writing-mode:lr-tb;direction:ltr;text-orientation:mixed;dominant-baseline:auto;baseline-shift:baseline;text-anchor:start;white-space:normal;shape-padding:0;clip-rule:nonzero;display:inline;overflow:visible;visibility:visible;opacity:1;isolation:auto;mix-blend-mode:normal;color-interpolation:sRGB;color-interpolation-filters:linearRGB;solid-color:#000000;solid-opacity:1;vector-effect:none;fill:#000000;fill-opacity:1;fill-rule:nonzero;stroke:none;stroke-width:0.26458332px;stroke-linecap:butt;stroke-linejoin:miter;stroke-miterlimit:4;stroke-dasharray:none;stroke-dashoffset:0;stroke-opacity:1;color-rendering:auto;image-rendering:auto;shape-rendering:auto;text-rendering:auto;enable-background:accumulate"
       d="M 60.804557,175.21407 H 36.750212 v 0.13126 6.81409 h 24.054345 m 0,0 v 24.79694 H 163.03501 v -0.1328 h 0.13126 v -24.66414 m 0,0 h 26.72808 v -6.94535 h -26.72808 m 0,0 v -25.58566 h -0.13126 v -0.13126 H 60.804557 v 25.71692 m 102.097643,0 H 68.68728 m 0,0 h -7.617106 m 0,0 V 149.76122 H 162.9022 v 25.45285 m -102.097643,0.26407 v 6.41773 m 0,0 h -23.78873 v -6.41773 h 23.78873 m 0.265617,0 h 7.617106 m 0,0 h 94.21492 m 0,0 v 6.41773 m 0,0 H 61.070174 m 0,0 v -6.41773 m 102.096096,0 h 26.46246 v 6.41773 h -26.46246 m 0,0 v -6.41773 M 61.070174,182.15942 H 162.9022 m 0,0 v 24.5334 H 61.070174 v -24.5334"
       id="path12"
       inkscape:connector-curvature="0"
       sodipodi:nodetypes="ccccccccccccccccccccccccccccccccccccccccccccccccccccccccc" />
    <path
       style="fill:none;stroke:#000000;stroke-width:0.26458332px;stroke-linecap:butt;stroke-linejoin:miter;stroke-opacity:1"
       d="m 179.53869,182.17135 -6.4256,9.07144 13.22917,0.18898 z"
       id="path14"
       inkscape:connector-curvature="0" />
    <path
       style="fill:none;stroke:#000000;stroke-width:0.26458332px;stroke-linecap:butt;stroke-linejoin:miter;stroke-opacity:1"
       d="m 47.052607,181.93288 -6.4256,9.07145 13.22917,0.18898 z"
       id="path14-3"
       inkscape:connector-curvature="0" />
    <path
       style="fill:none;stroke:#000000;stroke-width:0.26458332px;stroke-linecap:butt;stroke-linejoin:miter;stroke-opacity:1"
       d="m 177.46696,162.24953 v 9.35449 h 2.6727 v -9.35449 z"
       id="path33"
       inkscape:connector-curvature="0" />
    <path
       style="fill:none;stroke:#000000;stroke-width:0.26458332px;stroke-linecap:butt;stroke-linejoin:miter;stroke-opacity:1"
       d="m 45.436999,161.31408 v 9.35449 h 2.6727 v -9.35449 z"
       id="path33-6"
       inkscape:connector-curvature="0" />
    <path
       style="fill:none;stroke:#000000;stroke-width:0.26458332px;stroke-linecap:butt;stroke-linejoin:miter;stroke-opacity:1"
       d="m 177.46696,162.24953 c -0.0506,-1.07733 2.02818,-0.92776 2.40543,-1.87089 0.0993,-0.24816 -0.0439,-0.53818 0,-0.80182 0.35727,-2.14363 -0.004,0.13935 0.80181,-1.06908 0.0988,-0.14826 0,-0.35637 0,-0.53455 0,-0.26727 -0.0648,-0.54252 0,-0.80181 0.0305,-0.12223 0.22743,-0.14774 0.26727,-0.26727 0.0304,-0.0913 -0.0358,-1.30058 0,-1.33635 0.40802,-0.40803 0.94383,0.45104 1.06908,0.53454 0.0511,0.0341 1.32491,-0.004 1.33634,0 0.0845,0.0282 -0.063,0.20427 0,0.26727 0.063,0.063 0.19315,-0.0494 0.26727,0 0.20967,0.13978 0.32488,0.39477 0.53454,0.53454 0.0741,0.0494 0.17818,0 0.26727,0 0.17818,0 0.40855,0.12599 0.53454,0 0.12599,-0.12599 -0.14825,-0.43571 0,-0.53454 0.22238,-0.14825 0.54825,0.0845 0.80181,0 0.0845,-0.0282 -0.063,-0.20428 0,-0.26727 0.063,-0.063 0.22743,0.0797 0.26727,0 0.0797,-0.15937 -0.15937,-0.45486 0,-0.53454 0.17818,-0.0891 0.33533,0.26727 0.53454,0.26727 0.0891,0 -0.0282,-0.18275 0,-0.26727 0.063,-0.18899 0.20427,-0.34556 0.26727,-0.53455 0.15838,-0.47514 -0.47515,-0.35636 0,-1.06908 0.0988,-0.14826 0.40854,0.12599 0.53454,0 0.12599,-0.12599 0,-0.35636 0,-0.53454 0,-0.53454 0,-1.06909 0,-1.60363 0,-0.0891 0,-0.17818 0,-0.26727 0,-0.17818 -0.0988,-0.38629 0,-0.53454 0.1105,-0.16575 0.39367,-0.12641 0.53454,-0.26727 0.14086,-0.14087 0.10151,-0.42404 0.26726,-0.53455 0.14826,-0.0988 0.35636,0 0.53454,0 0.0891,0 0.17818,0 0.26727,0 0.0891,0 0.26727,-0.0891 0.26727,0 0,0.0891 -0.17818,0 -0.26727,0"
       id="path59"
       inkscape:connector-curvature="0" />
    <path
       style="fill:none;stroke:#000000;stroke-width:0.26458332px;stroke-linecap:butt;stroke-linejoin:miter;stroke-opacity:1"
       d="m 45.436998,161.31408 c 0.209619,-0.39347 1.197169,-1.97834 1.33517,-2.80634 0.04394,-0.26364 -0.08452,-0.54826 0,-0.80182 0.101576,-0.30473 0.446291,-0.49295 0.534538,-0.80181 0,-0.35636 0,-0.71272 0,-1.06908 0.08909,-0.0891 0.227428,-0.14774 0.267269,-0.26727 0.09899,-0.29697 -0.148482,-1.11364 0,-1.33636 0.09884,-0.14825 0.375171,0.0797 0.53454,0 0.07968,-0.0398 -0.063,-0.20427 0,-0.26727 0.154096,-0.1541 0.532088,0.17736 0.801809,0.26727 0.08452,0.0282 0.178178,0 0.267269,0 0.178178,0 0.375168,-0.0797 0.534538,0 0.07968,0.0398 0.08909,0.26727 0,0.26727 -0.08909,0 -0.08909,-0.26727 0,-0.26727 0.08909,0 0,0.17818 0,0.26727 0.178181,-0.26727 0.390887,-0.5145 0.53454,-0.80181 0.770647,-1.54131 -0.347128,-0.0717 0.801809,-1.60363 0.475144,-0.63353 0.356359,0.11879 1.069078,-1.06908 0.09167,-0.15279 -0.125992,-0.40855 0,-0.53454 0.125992,-0.126 0.386284,0.0988 0.534538,0 0.580165,-0.38678 0.03214,-0.98365 0.267269,-1.33636 1.022051,-0.51103 0.24104,0.0787 0.53454,-0.80181 0.03984,-0.11953 0.178178,-0.17818 0.267269,-0.26727 0.178181,-0.17818 0.324877,-0.39477 0.53454,-0.53455 0.07413,-0.0494 0.267269,-0.0891 0.267269,0 0,0.0891 -0.178181,0 -0.267269,0"
       id="path61"
       inkscape:connector-curvature="0" />
    <text
       xml:space="preserve"
       style="font-style:normal;font-weight:normal;font-size:6.69773293px;line-height:1.25;font-family:sans-serif;letter-spacing:0px;word-spacing:0px;fill:#000000;fill-opacity:1;stroke:none;stroke-width:0.16744329"
       x="281.49393"
       y="88.49147"
       id="text65"
       transform="scale(0.60926033,1.6413345)"><tspan
         sodipodi:role="line"
         x="281.49393"
         y="88.49147"
         style="stroke-width:0.16744329"
         id="tspan67">Measuring Plane 1</tspan></text>
    <text
       xml:space="preserve"
       style="font-style:normal;font-weight:normal;font-size:6.69773293px;line-height:1.25;font-family:sans-serif;letter-spacing:0px;word-spacing:0px;fill:#000000;fill-opacity:1;stroke:none;stroke-width:0.16744329"
       x="46.318722"
       y="87.510048"
       id="text65-5"
       transform="scale(0.60926033,1.6413345)"><tspan
         sodipodi:role="line"
         x="46.318722"
         y="87.510048"
         style="stroke-width:0.16744329"
         id="tspan67-3">Measuring Plane 2</tspan></text>
    <text
       xml:space="preserve"
       style="font-style:normal;font-weight:normal;font-size:6.69773293px;line-height:1.25;font-family:sans-serif;letter-spacing:0px;word-spacing:0px;fill:#000000;fill-opacity:1;stroke:none;stroke-width:0.16744329"
       x="279.69583"
       y="123.98602"
       id="text65-56"
       transform="scale(0.60926033,1.6413345)"><tspan
         sodipodi:role="line"
         x="279.69583"
         y="123.98602"
         style="stroke-width:0.16744329"
         id="tspan67-2">Bearing 1</tspan><tspan
         sodipodi:role="line"
         x="279.69583"
         y="132.35818"
         style="stroke-width:0.16744329"
         id="tspan123" /></text>
    <text
       xml:space="preserve"
       style="font-style:normal;font-weight:normal;font-size:6.69773293px;line-height:1.25;font-family:sans-serif;letter-spacing:0px;word-spacing:0px;fill:#000000;fill-opacity:1;stroke:none;stroke-width:0.16744329"
       x="63.044266"
       y="123.17835"
       id="text65-56-9"
       transform="scale(0.60926033,1.6413345)"><tspan
         sodipodi:role="line"
         x="63.044266"
         y="123.17835"
         style="stroke-width:0.16744329"
         id="tspan67-2-1">Bearing 2</tspan><tspan
         sodipodi:role="line"
         x="63.044266"
         y="131.55052"
         style="stroke-width:0.16744329"
         id="tspan123-2" /></text>
    <path
       style="fill:none;stroke:#000000;stroke-width:0.25223845;stroke-linecap:butt;stroke-linejoin:miter;stroke-miterlimit:4;stroke-dasharray:none;stroke-opacity:1;marker-start:url(#Arrow1Lstart)"
       d="M 158.52573,152.9453 142.13581,132.33303"
       id="path146"
       inkscape:connector-curvature="0" />
    <text
       xml:space="preserve"
       style="font-style:normal;font-weight:normal;font-size:6.69773293px;line-height:1.25;font-family:sans-serif;letter-spacing:0px;word-spacing:0px;fill:#000000;fill-opacity:1;stroke:none;stroke-width:0.16744329"
       x="214.55598"
       y="147.61374"
       id="text65-56-7"
       transform="scale(0.60926033,1.6413345)"><tspan
         sodipodi:role="line"
         x="214.55598"
         y="147.61374"
         style="stroke-width:0.16744329"
         id="tspan1256"> Balancing Plane 1</tspan><tspan
         sodipodi:role="line"
         x="214.55598"
         y="155.9859"
         style="stroke-width:0.16744329"
         id="tspan123-9" /></text>
    <path
       style="fill:none;stroke:#000000;stroke-width:0.26499999;stroke-linecap:butt;stroke-linejoin:miter;stroke-miterlimit:4;stroke-dasharray:none;stroke-opacity:1;marker-start:url(#Arrow1Lstart-3)"
       d="M 60.65927,206.71194 45.15764,230.7662"
       id="path146-0"
       inkscape:connector-curvature="0" />
    <text
       xml:space="preserve"
       style="font-style:normal;font-weight:normal;font-size:6.69773293px;line-height:1.25;font-family:sans-serif;letter-spacing:0px;word-spacing:0px;fill:#000000;fill-opacity:1;stroke:none;stroke-width:0.16744329"
       x="47.84898"
       y="146.8414"
       id="text65-56-7-6"
       transform="scale(0.60926033,1.6413345)"><tspan
         sodipodi:role="line"
         x="47.84898"
         y="146.8414"
         style="stroke-width:0.16744329"
         id="tspan1256-2"> Balancing Plane 2</tspan><tspan
         sodipodi:role="line"
         x="47.84898"
         y="155.21356"
         style="stroke-width:0.16744329"
         id="tspan123-9-6" /></text>
    <path
       style="fill:#000000;fill-opacity:1;stroke:#00006b;stroke-width:0.18993187px;stroke-linecap:butt;stroke-linejoin:miter;stroke-opacity:1"
       d="m 163.33901,153.12499 h -4.61825 v 5.42007 h 4.61825 z"
       id="path1666"
       inkscape:connector-curvature="0" />
    <path
       style="fill:none;stroke:#000000;stroke-width:0.26499999;stroke-linecap:butt;stroke-linejoin:miter;stroke-miterlimit:4;stroke-dasharray:none;stroke-opacity:1;marker-start:url(#Arrow1Lstart-1)"
       d="m 164.2871,206.26219 -15.50163,24.05426"
       id="path146-7"
       inkscape:connector-curvature="0" />
    <text
       xml:space="preserve"
       style="font-style:normal;font-weight:normal;font-size:6.69773293px;line-height:1.25;font-family:sans-serif;letter-spacing:0px;word-spacing:0px;fill:#000000;fill-opacity:1;stroke:none;stroke-width:0.16744329"
       x="199.4176"
       y="78.228271"
       id="text65-9"
       transform="scale(0.60926033,1.6413345)"><tspan
         sodipodi:role="line"
         x="199.4176"
         y="78.228271"
         style="stroke-width:0.16744329"
         id="tspan67-20">Trial Weight</tspan></text>
    <path
       style="fill:#000000;fill-opacity:1;stroke:#00006b;stroke-width:0.09025346px;stroke-linecap:butt;stroke-linejoin:miter;stroke-opacity:1"
       d="m 40.53456,175.82068 h -2.450071 v 2.30694 h 2.450071 z"
       id="path1666-2"
       inkscape:connector-curvature="0" />
    <path
       style="fill:none;stroke:#000000;stroke-width:0.17572953;stroke-linecap:butt;stroke-linejoin:miter;stroke-miterlimit:4;stroke-dasharray:none;stroke-opacity:1;marker-start:url(#Arrow1Lstart-37)"
       d="M 38.085003,176.28063 22.9885,165.41905"
       id="path146-9"
       inkscape:connector-curvature="0" />
    <text
       xml:space="preserve"
       style="font-style:normal;font-weight:normal;font-size:4.72773075px;line-height:1.25;font-family:sans-serif;letter-spacing:0px;word-spacing:0px;fill:#000000;fill-opacity:1;stroke:none;stroke-width:0.11819325"
       x="1.1487318"
       y="114.97002"
       id="text65-9-2"
       transform="scale(0.69841206,1.4318195)"><tspan
         sodipodi:role="line"
         x="1.1487318"
         y="114.97002"
         style="stroke-width:0.11819325"
         id="tspan67-20-2">Tachometer photo tape</tspan></text>
    <path
       style="fill:none;stroke:#000000;stroke-width:0.26458332px;stroke-linecap:butt;stroke-linejoin:miter;stroke-opacity:1"
       d="m 34.206844,181.98236 -1.133928,0.94495 -7.748511,8.88244 2.645834,1.13393 8.315476,-9.44941 z"
       id="path3601"
       inkscape:connector-curvature="0" />
    <path
       style="fill:none;stroke:#000000;stroke-width:0.26458332px;stroke-linecap:butt;stroke-linejoin:miter;stroke-opacity:1"
       d="m 26.836309,192.37671 c -0.538904,3.23343 0.102499,0.0705 -0.377976,1.51191 -0.01992,0.0598 0.03494,0.13657 0,0.18899 -0.587058,0.88059 -0.200053,0.0166 -0.566964,0.56696 -0.09168,0.13752 -0.2863,0.61844 -0.377976,0.75595 -0.04942,0.0741 -0.114861,0.13957 -0.188988,0.18899 -0.117206,0.0781 -0.314981,0.063 -0.377977,0.18899 -0.08452,0.16904 0.03706,0.38165 0,0.56696 -0.125992,0.62997 -0.188988,0.18899 -0.566964,0.56697 -0.09961,0.0996 -0.08938,0.27837 -0.188988,0.37798 -0.685137,0.68513 -0.134502,0 -0.566964,0 -0.683783,0 -0.135359,0.2341 -0.566965,0.37797 -0.119526,0.0398 -0.258449,-0.0398 -0.377976,0 -0.08452,0.0282 -0.117716,0.13554 -0.188988,0.18899 -0.181708,0.13628 -0.356074,0.29362 -0.566964,0.37798 -0.175471,0.0702 -0.377976,0 -0.566964,0 -0.125993,0 -0.273145,0.0699 -0.377977,0 -0.117205,-0.0781 -0.08938,-0.27837 -0.188988,-0.37798 -0.09961,-0.0996 -0.27837,-0.0894 -0.377976,-0.18899 -0.09961,-0.0996 -0.144443,-0.24434 -0.188988,-0.37797 -0.01992,-0.0598 0.05635,-0.16082 0,-0.18899 -0.112691,-0.0563 -0.288886,0.0891 -0.377976,0 -0.08909,-0.0891 0,-0.25199 0,-0.37798 0,-0.063 -0.04454,-0.14444 0,-0.18899 0.04454,-0.0445 0.144443,-0.0445 0.188988,0 0.04455,0.0446 0,0.126 0,0.18899 0,0.37798 0,0.75595 0,1.13393 0,0.12599 0,0.25198 0,0.37798 0,0.063 0.03494,0.13657 0,0.18899 -0.242293,0.36343 -0.702648,0.5815 -0.944941,0.94493 -0.03494,0.0524 0.04455,0.14445 0,0.18899 -0.04454,0.0446 -0.129225,-0.0199 -0.188988,0 -0.133635,0.0446 -0.260771,0.11085 -0.377976,0.18899 -0.218063,0.14538 -0.348901,0.42159 -0.566964,0.56696 -0.05242,0.035 -0.129225,-0.0199 -0.188988,0 -0.133635,0.0446 -0.244342,0.14445 -0.377976,0.18899 -0.05976,0.0199 -0.160816,-0.0563 -0.188989,0 -0.05635,0.1127 0.05635,0.26529 0,0.37798 -0.02817,0.0564 -0.125991,0 -0.188988,0 -0.063,0 -0.144443,0.0446 -0.188988,0 -0.09961,-0.0996 -0.110851,-0.26077 -0.188988,-0.37798 -0.04942,-0.0741 -0.13957,-0.11486 -0.188988,-0.18899 -0.07814,-0.1172 -0.116514,-0.25718 -0.188988,-0.37797 -0.11686,-0.19477 -0.276398,-0.36381 -0.377976,-0.56697 -0.07559,-0.15118 0.07559,-0.41577 0,-0.56696 -0.02817,-0.0563 -0.144443,0.0446 -0.188988,0 -0.04454,-0.0445 0.04454,-0.14444 0,-0.18899 -0.04454,-0.0445 -0.144444,-0.0445 -0.188988,0 -0.04454,0.0446 0.01992,0.12923 0,0.18899 -0.04454,0.13363 -0.144443,0.24434 -0.188988,0.37798 -0.01992,0.0598 0.05635,0.16081 0,0.18898 -0.112691,0.0564 -0.251985,0 -0.377977,0 -0.063,0.126 -0.07178,0.29984 -0.188988,0.37798 -0.104832,0.0699 -0.265285,-0.0563 -0.377976,0 -0.05635,0.0282 0.04455,0.14444 0,0.18899 -0.04454,0.0445 -0.136572,-0.0349 -0.188988,0 -0.148254,0.0988 -0.229722,0.27914 -0.377976,0.37797 -0.05242,0.035 -0.144443,-0.0445 -0.188988,0 -0.04455,0.0446 0,0.126 0,0.18899 -0.188988,0 -0.391494,-0.0702 -0.566965,0 -0.165435,0.0662 -0.251984,0.25199 -0.377976,0.37798 -0.063,0.063 -0.10447,0.16082 -0.188988,0.18899 -0.119526,0.0398 -0.273144,-0.0699 -0.377976,0 -0.117205,0.0781 -0.07178,0.29984 -0.188988,0.37797 -0.188988,0.126 -0.377976,-0.063 -0.566964,0 -0.491038,-0.13245 -0.327911,0.44744 -0.566965,0.56697 -0.169036,0.0845 -0.381646,-0.0371 -0.566964,0 -0.138128,0.0276 -0.2443415,0.14444 -0.3779762,0.18899 -0.059763,0.0199 -0.1259919,0 -0.1889882,0 -0.1259919,0 -0.2519838,0 -0.3779761,0 -0.4561747,0 -1.1399226,0.09 -1.5119048,-0.18899 -0.2659433,-0.19946 -0.1889879,-0.67632 -0.1889879,-0.94494"
       id="path3603"
       inkscape:connector-curvature="0" />
    <text
       xml:space="preserve"
       style="font-style:normal;font-weight:normal;font-size:4.72773075px;line-height:1.25;font-family:sans-serif;letter-spacing:0px;word-spacing:0px;fill:#000000;fill-opacity:1;stroke:none;stroke-width:0.11819325"
       x="-0.85525495"
       y="146.74957"
       id="text65-9-2-8"
       transform="scale(0.69841205,1.4318195)"><tspan
         sodipodi:role="line"
         x="-0.85525495"
         y="146.74957"
         style="stroke-width:0.11819325"
         id="tspan3623">Tachometer Sensor</tspan></text>
    <path
       style="fill:none;stroke:#000000;stroke-width:0.26458332px;stroke-linecap:butt;stroke-linejoin:miter;stroke-opacity:1"
       d="m 191.63393,169.69806 c -1.013,-0.25432 -1.39983,0.61129 -2.26786,0.75596 -0.18642,0.0311 -0.39793,-0.0845 -0.56696,0 -0.126,0.063 -0.0894,0.27837 -0.18899,0.37798 -0.0996,0.0996 -0.24434,0.14444 -0.37798,0.18899 -0.0598,0.0199 -0.14444,-0.0445 -0.18899,0 -0.0445,0.0445 0,0.12599 0,0.18899 -0.12599,0.12599 -0.22972,0.27914 -0.37797,0.37797 -0.0524,0.0349 -0.126,0 -0.18899,0 -0.12599,0 -0.26529,-0.0563 -0.37798,0 -0.0563,0.0282 0.0199,0.12923 0,0.18899 -0.0445,0.13364 -0.0718,0.29985 -0.18899,0.37798 -0.10483,0.0699 -0.25845,-0.0398 -0.37797,0 -0.41172,-0.0706 -0.063,0.31498 -0.18899,0.37798 -1.07093,0 -0.063,-0.12599 -0.37798,0.18899 -0.0445,0.0446 -0.16081,-0.0563 -0.18898,0 -0.0437,0.0874 0.0469,0.89805 0,0.94495 -0.0891,0.0891 -0.26529,-0.0564 -0.37798,0 -0.0206,0.0103 0.029,1.61385 0,1.7009 -0.0199,0.0598 -0.16082,-0.0563 -0.18899,0 -0.0565,0.11308 0.0589,1.01615 0,1.13393 -0.10158,0.20316 -0.2764,0.36382 -0.37797,0.56697 -0.0282,0.0564 0,0.12599 0,0.18899 0,0.12599 0.0398,0.25845 0,0.37798 -0.0282,0.0845 -0.16082,0.10447 -0.18899,0.18899 -0.0306,0.0918 0,1.12997 0,1.32292 0,0.81896 0,1.63791 0,2.45686 0,0.50397 0,1.00794 0,1.51191 0,0.063 0,0.126 0,0.18899 0,0.063 -0.0445,0.14445 0,0.18899 0.0445,0.0445 0.16081,-0.0563 0.18899,0 0.094,0.18802 -0.0748,0.52958 0,0.56697 0.11269,0.0563 0.27314,-0.0699 0.37797,0 0.75479,0.50319 -0.0514,0.20631 0.18899,0.56696 0.0988,0.14826 0.27914,0.22973 0.37798,0.37798 0.0349,0.0524 0,0.12599 0,0.18899 0,0.12599 -0.0563,0.26528 0,0.37797 0.0282,0.0563 0.14444,-0.0445 0.18898,0 0.0445,0.0446 -0.0563,0.16082 0,0.18899 0.11269,0.0563 0.28889,-0.0891 0.37798,0 0.30734,0.30734 -0.30641,0.40183 0.18899,0.56697 0.11952,0.0398 0.25845,-0.0398 0.37797,0 0.0845,0.0282 0.11486,0.13957 0.18899,0.18899 0.4474,0.29826 0.47642,0.0984 0.94494,0.56696 0.0446,0.0445 -0.0199,0.12922 0,0.18899 0.0446,0.13363 0.0894,0.27837 0.18899,0.37797 0.0446,0.0446 0.13264,-0.0282 0.18899,0 0.0797,0.0398 0.10447,0.16082 0.18899,0.18899 0.11952,0.0398 0.28888,-0.0891 0.37797,0 0.0891,0.0891 -0.0563,0.26529 0,0.37798 0.0282,0.0563 0.12923,-0.0199 0.18899,0 0.13364,0.0445 0.29984,0.0718 0.37798,0.18898 0,1.07094 -0.126,0.063 0.18899,0.37798 0.0445,0.0446 -0.063,0.18899 0,0.18899 0.19921,0 0.37162,-0.14992 0.56696,-0.18899 0.0307,-0.006 0.92052,-0.008 0.94494,0 0.0845,0.0282 0.12599,0.12599 0.18899,0.18899 0.32836,0.32836 0.69014,0.76743 1.13393,0.94494 0.94494,0.37798 0,-0.18899 0.56696,0 0.13364,0.0446 0.24434,0.14444 0.37798,0.18899 0.12499,0.0417 0.94827,0 1.13393,0"
       id="path3631"
       inkscape:connector-curvature="0" />
    <path
       style="fill:none;stroke:#000000;stroke-width:0.26458332px;stroke-linecap:butt;stroke-linejoin:miter;stroke-opacity:1"
       d="m 191.25595,186.89606 c 0.84301,0.11037 0.804,0.23704 1.32292,0.75595 0.12599,0.126 0.3118,0.21254 0.37797,0.37798 0.0702,0.17547 -0.0598,0.38767 0,0.56696 0.0199,0.0598 0.126,0 0.18899,0 0.12599,0 0.25845,-0.0398 0.37798,0 0.0845,0.0282 0.10447,0.16082 0.18899,0.18899 0.0645,0.0215 0.91964,-0.0253 0.94494,0 0.0891,0.0891 -0.0891,0.28889 0,0.37798 0.0891,0.0891 0.28888,-0.0891 0.37797,0 0.0891,0.0891 -0.0563,0.26528 0,0.37797 0.0282,0.0563 0.14444,-0.0445 0.18899,0 0.0945,0.0945 -0.0945,0.47247 0,0.56697 0.0891,0.0891 0.26529,-0.0563 0.37798,0 0.0563,0.0282 -0.0445,0.14444 0,0.18899 0.0445,0.0445 0.16081,-0.0564 0.18898,0 0.0563,0.11269 0,0.25198 0,0.37797 0,0.063 -0.0349,0.13657 0,0.18899 0.16954,0.2543 0.55018,0.39476 0.37798,0.56696 -0.0445,0.0446 -0.14444,0.0446 -0.18899,0 -0.0445,-0.0445 0.0564,-0.16081 0,-0.18898 -0.11269,-0.0564 -0.25198,0 -0.37797,0 -1.32292,0 -2.64584,0 -3.96875,0 -0.126,0 -0.25199,0 -0.37798,0 -0.063,0 -0.14444,-0.0446 -0.18899,0 -0.0445,0.0445 0.0564,0.16081 0,0.18898 -0.44097,0.22049 -0.37797,-0.23623 -0.37797,0.18899"
       id="path3633"
       inkscape:connector-curvature="0" />
    <text
       xml:space="preserve"
       style="font-style:normal;font-weight:normal;font-size:6.69773293px;line-height:1.25;font-family:sans-serif;letter-spacing:0px;word-spacing:0px;fill:#000000;fill-opacity:1;stroke:none;stroke-width:0.16744329"
       x="309.75806"
       y="102.00269"
       id="text65-56-73"
       transform="scale(0.60926033,1.6413345)"><tspan
         sodipodi:role="line"
         x="309.75806"
         y="102.00269"
         style="stroke-width:0.16744329"
         id="tspan3656"> Rotation</tspan><tspan
         sodipodi:role="line"
         x="309.75806"
         y="110.37486"
         style="stroke-width:0.16744329"
         id="tspan123-1" /></text>
    <text
       xml:space="preserve"
       style="font-style:normal;font-weight:normal;font-size:8.06581402px;line-height:1.25;font-family:sans-serif;letter-spacing:0px;word-spacing:0px;fill:#000000;fill-opacity:1;stroke:none;stroke-width:0.20164531"
       x="161.17378"
       y="98.183945"
       id="text65-2"
       transform="scale(0.56353054,1.7745267)"><tspan
         sodipodi:role="line"
         x="161.17378"
         y="98.183945"
         style="stroke-width:0.20164531"
         id="tspan67-9">Rotating Element</tspan></text>
    <path
       style="fill:none;stroke:#000000;stroke-width:0.26458332px;stroke-linecap:butt;stroke-linejoin:miter;stroke-opacity:1"
       d="m 162.90774,175.17875 0.0945,6.9926"
       id="path3692"
       inkscape:connector-curvature="0" />
    <path
       style="fill:none;stroke:#000000;stroke-width:0.26458332px;stroke-linecap:butt;stroke-linejoin:miter;stroke-opacity:1"
       d="m 60.948659,174.98976 v 6.9926"
       id="path3694"
       inkscape:connector-curvature="0" />
    <text
       xml:space="preserve"
       style="font-style:normal;font-weight:normal;font-size:11.80522633px;line-height:1.25;font-family:sans-serif;letter-spacing:0px;word-spacing:0px;fill:#000000;fill-opacity:1;stroke:none;stroke-width:0.29513061"
       x="73.21228"
       y="225.33902"
       id="text65-56-7-3"
       transform="scale(0.77211784,1.2951391)"><tspan
         sodipodi:role="line"
         x="73.21228"
         y="225.33902"
         style="stroke-width:0.29513061"
         id="tspan1256-1">Simple Balancing Scheme</tspan><tspan
         sodipodi:role="line"
         x="73.21228"
         y="240.09555"
         style="stroke-width:0.29513061"
         id="tspan123-9-9" /></text>
  </g>
</svg>
